<svg xmlns="http://www.w3.org/2000/svg" viewBox="-1.09 -1.09 2.18 2.18">

    <path d="M 1 0 Q 0.63 0.3 0.6235 0.7818 Q 0.16 0.68 -0.22 0.96 Q -0.44 0.55 -0.901 0.4339 Q -0.7 0 -0.901 -0.4339 Q -0.44 -0.55 -0.2225 -0.9749 Q 0.16 -0.68 0.6235 -0.7818 Q 0.63 -0.31 1 0 Z" fill = "#9ebf57" stroke="#525252" stroke-width="0.09"/>

    <path d="M 0.5 0 Q 0.315 0.15 0.3118 0.3909 Q 0.08 0.34 -0.11 0.48 Q -0.22 0.275 -0.4505 0.217 Q -0.35 0 -0.4505 -0.217 Q -0.22 -0.275 -0.1113 -0.4874 Q 0.08 -0.34 0.3118 -0.3909 Q 0.315 -0.155 0.5 0 Z" fill = "#b4db62"/>

</svg>